# xmcd
#
# Track frame offsets:
#	150
#	12680
#	28774
#	42955
#	55501
#	69576
#	84942
#	102831
#	116940
#	126531
#	137987
#	151948
#
# Disc length: 2291 seconds
#
# Revision: 1
# Processed by: cddbd v1.5.2PL0 Copyright (c) Steve Scherf et al.
# Submitted via: audiograbber 1.83.01
#
DISCID=a608f10c
DTITLE=A Deeper Shade Of Blue - No More Blues
DYEAR=2012
DGENRE=Bluegrass
TTITLE0=Pretty Sights, Pretty Sounds
TTITLE1=Fraley's Comet
TTITLE2=Road To Heaven
TTITLE3=No More Blues
TTITLE4=I'l l Be Your Morning Man
TTITLE5=Little Bessie
TTITLE6=Man Behind The Stand
TTITLE7=Touch The Ground
TTITLE8=Life Rolls On
TTITLE9=The Old Man In The Park
TTITLE10=Lost In Love
TTITLE11=Stobro's Blues
EXTD=
EXTT0=
EXTT1=
EXTT2=
EXTT3=
EXTT4=
EXTT5=
EXTT6=
EXTT7=
EXTT8=
EXTT9=
EXTT10=
EXTT11=
PLAYORDER=
